<svg xmlns="http://www.w3.org/2000/svg" width="26" height="26" viewBox="0 0 26 26"><defs><clipPath id="tac8a"><path d="M13 26c7.18 0 13-5.82 13-13S20.18 0 13 0 0 5.82 0 13s5.82 13 13 13z"/></clipPath></defs><g><g><g><path fill="#fff" d="M13 26c7.18 0 13-5.82 13-13S20.18 0 13 0 0 5.82 0 13s5.82 13 13 13z"/></g><g clip-path="url(#tac8a)"><g><path fill="#1b9de2" d="M23 13c0-.288-.121-.565-.333-.759l-.667-.68.428-.826c.141-.25.172-.551.083-.825A1.11 1.11 0 0 0 22 9.291l-.921-.429.188-.93a1.032 1.032 0 0 0-.893-1.228l-.97-.136-.108-.943a1.032 1.032 0 0 0-1.228-.893l-.965.171L16.71 4a1.11 1.11 0 0 0-.618-.511 1.032 1.032 0 0 0-.825.082L14.402 4l-.643-.668a1.034 1.034 0 0 0-1.519.003L11.56 4l-.826-.426a1.036 1.036 0 0 0-.824-.082c-.274.088-.5.29-.619.508l-.428.923-.93-.187a1.034 1.034 0 0 0-1.228.892l-.136.97-.944.108a1.034 1.034 0 0 0-.893 1.229l.171.964L4 9.293a1.11 1.11 0 0 0-.511.618c-.089.274-.059.575.083.826L4 11.6l-.666.642a1.03 1.03 0 0 0 0 1.519l.666.68-.428.826c-.141.25-.172.552-.083.825.09.274.29.5.511.619l.921.428-.188.931a1.035 1.035 0 0 0 .894 1.229l.97.133.108.942a1.029 1.029 0 0 0 1.228.893l.965-.171.394.904c.12.22.345.421.619.51.273.089.573.059.824-.082l.864-.428.642.667a1.034 1.034 0 0 0 1.518 0l.68-.667.826.428c.251.142.552.171.825.082.273-.088.499-.29.618-.51l.429-.922.93.188a1.034 1.034 0 0 0 1.227-.892l.136-.97.943-.109a1.034 1.034 0 0 0 .893-1.228l-.17-.965.904-.394c.22-.12.42-.345.51-.618.089-.274.059-.574-.082-.826L22 14.4l.666-.642c.213-.194.334-.471.334-.758z"/></g><g opacity=".05"><path d="M12.317 17.552c-.395 0-.75-.21-.947-.552-1.78-3.198-4.617-4.683-4.645-4.698l-.175-.09.205-.856H7c2.655 0 4.143.96 5.211 1.966 1.67-2.67 5.205-4.322 6.71-4.69l.203-.052.376.832-.174.118c-3.186 2.165-4.963 5.26-6.023 7.4a1.1 1.1 0 0 1-.986.622z"/></g><g opacity=".07"><path d="M12.318 17.297a.812.812 0 0 1-.728-.435c-1.826-3.269-4.72-4.772-4.75-4.787l.16-.472c2.924 0 4.34 1.193 5.266 2.115C13.812 11 17.419 9.27 19 8.87l.187.449c-3.187 2.198-5.034 5.33-6.106 7.495a.853.853 0 0 1-.763.483z"/></g><g><path fill="#fff" d="M7 11.85s2.92 1.515 4.804 4.888c.196.427.832.403 1.05-.038 1.025-2.071 2.829-5.307 6.146-7.59-1.75.457-5.332 2.284-6.676 5.024-.896-.914-2.24-2.284-5.324-2.284z"/></g></g></g></g></svg>